<svg width="32" height="32" viewBox="0 0 32 32" fill="none" xmlns="http://www.w3.org/2000/svg">
<rect width="32" height="32" rx="8" fill="#FEDCB1"/>
<path d="M14.1266 12.2333C12.7666 13.76 11.8333 15.9533 11.7466 16.16L9.33325 15.1267L12.0333 12.4267C12.3466 12.1133 12.7999 11.9733 13.2399 12.06L14.1266 12.2333ZM15.4466 19.3333C15.4466 19.3333 17.9399 18.3 19.3733 16.8667C22.9733 13.2667 22.3733 10.4533 22.1799 9.81999C21.5466 9.61999 18.7333 9.02666 15.1333 12.6267C13.6999 14.06 12.6666 16.5533 12.6666 16.5533L15.4466 19.3333ZM19.7666 17.8733C18.2399 19.2333 16.0466 20.1667 15.8399 20.2533L16.8733 22.6667L19.5733 19.9667C19.8866 19.6533 20.0266 19.2 19.9399 18.76L19.7666 17.8733ZM13.9999 20C13.9999 20.5533 13.7733 21.0533 13.4133 21.4133C12.6266 22.2 9.33325 22.6667 9.33325 22.6667C9.33325 22.6667 9.79992 19.3733 10.5866 18.5867C10.8658 18.306 11.2221 18.1146 11.6103 18.0369C11.9984 17.9591 12.4009 17.9985 12.7667 18.1499C13.1325 18.3014 13.445 18.5581 13.6645 18.8875C13.8841 19.2169 14.0008 19.6041 13.9999 20ZM16.6666 14C16.6666 13.2667 17.2666 12.6667 17.9999 12.6667C18.7333 12.6667 19.3333 13.2667 19.3333 14C19.3333 14.7333 18.7333 15.3333 17.9999 15.3333C17.2666 15.3333 16.6666 14.7333 16.6666 14Z" fill="#FE843D"/>
</svg>
