<svg width="16" height="16" viewBox="0 0 16 16" fill="none" xmlns="http://www.w3.org/2000/svg">
<path d="M6.12659 4.23332C4.76659 5.75999 3.83325 7.95332 3.74659 8.15999L1.33325 7.12666L4.03325 4.42666C4.34659 4.11332 4.79992 3.97332 5.23992 4.05999L6.12659 4.23332ZM7.44659 11.3333C7.44659 11.3333 9.93992 10.3 11.3733 8.86666C14.9733 5.26666 14.3733 2.45332 14.1799 1.81999C13.5466 1.61999 10.7333 1.02666 7.13325 4.62666C5.69992 6.05999 4.66659 8.55332 4.66659 8.55332L7.44659 11.3333ZM11.7666 9.87332C10.2399 11.2333 8.04659 12.1667 7.83992 12.2533L8.87325 14.6667L11.5733 11.9667C11.8866 11.6533 12.0266 11.2 11.9399 10.76L11.7666 9.87332ZM5.99992 12C5.99992 12.5533 5.77325 13.0533 5.41325 13.4133C4.62659 14.2 1.33325 14.6667 1.33325 14.6667C1.33325 14.6667 1.79992 11.3733 2.58659 10.5867C2.86578 10.306 3.22209 10.1146 3.61025 10.0369C3.99842 9.95911 4.40094 9.99846 4.7667 10.1499C5.13246 10.3014 5.44497 10.5581 5.66454 10.8875C5.88412 11.2169 6.00085 11.6041 5.99992 12ZM8.66659 5.99999C8.66659 5.26666 9.26659 4.66666 9.99992 4.66666C10.7333 4.66666 11.3333 5.26666 11.3333 5.99999C11.3333 6.73332 10.7333 7.33332 9.99992 7.33332C9.26659 7.33332 8.66659 6.73332 8.66659 5.99999Z" fill="#FE843D"/>
</svg>
